<svg xmlns="http://www.w3.org/2000/svg" viewBox="0 0 128 128" width="128" height="128">
<defs>
<radialGradient id="bg" cx="50%" cy="34%" r="76%">
<stop offset="0%" stop-color="#071A2C"/><stop offset="100%" stop-color="#02060C"/>
</radialGradient>

</defs>
<clipPath id="clip"><circle cx="64" cy="64" r="64"/></clipPath>
<circle cx="64" cy="64" r="64" fill="url(#bg)"/>
<g clip-path="url(#clip)"><circle cx="14" cy="18" r="1.5" fill="#EAF6FF"><animate attributeName="fill-opacity" values=".2;1;.2" dur="2.0s" repeatCount="indefinite"/></circle><circle cx="27" cy="27" r="1.5" fill="#EAF6FF"><animate attributeName="fill-opacity" values=".2;1;.2" dur="2.5s" repeatCount="indefinite"/></circle><circle cx="40" cy="36" r="1.5" fill="#EAF6FF"><animate attributeName="fill-opacity" values=".2;1;.2" dur="3.0s" repeatCount="indefinite"/></circle><circle cx="53" cy="45" r="1.5" fill="#EAF6FF"><animate attributeName="fill-opacity" values=".2;1;.2" dur="3.5s" repeatCount="indefinite"/></circle><circle cx="66" cy="18" r="1.5" fill="#EAF6FF"><animate attributeName="fill-opacity" values=".2;1;.2" dur="4.0s" repeatCount="indefinite"/></circle><circle cx="79" cy="27" r="1.5" fill="#EAF6FF"><animate attributeName="fill-opacity" values=".2;1;.2" dur="4.5s" repeatCount="indefinite"/></circle><circle cx="92" cy="36" r="1.5" fill="#EAF6FF"><animate attributeName="fill-opacity" values=".2;1;.2" dur="5.0s" repeatCount="indefinite"/></circle><circle cx="105" cy="45" r="1.5" fill="#EAF6FF"><animate attributeName="fill-opacity" values=".2;1;.2" dur="5.5s" repeatCount="indefinite"/></circle><circle cx="118" cy="18" r="1.5" fill="#EAF6FF"><animate attributeName="fill-opacity" values=".2;1;.2" dur="6.0s" repeatCount="indefinite"/></circle><path d="M0 70 q32 -26 64 0 t64 0 V128 H0 Z" fill="#3DFFA8" fill-opacity="0.16"><animate attributeName="d" dur="6s" repeatCount="indefinite" values="M0 70 q32 -26 64 0 t64 0 V128 H0 Z;M0 70 q32 18 64 0 t64 0 V128 H0 Z;M0 70 q32 -26 64 0 t64 0 V128 H0 Z"/></path><path d="M0 78 q32 -23 64 0 t64 0 V128 H0 Z" fill="#3DFFA8" fill-opacity="0.13"><animate attributeName="d" dur="8s" repeatCount="indefinite" values="M0 78 q32 -23 64 0 t64 0 V128 H0 Z;M0 78 q32 16 64 0 t64 0 V128 H0 Z;M0 78 q32 -23 64 0 t64 0 V128 H0 Z"/></path><path d="M0 86 q32 -20 64 0 t64 0 V128 H0 Z" fill="#3DFFA8" fill-opacity="0.10"><animate attributeName="d" dur="10s" repeatCount="indefinite" values="M0 86 q32 -20 64 0 t64 0 V128 H0 Z;M0 86 q32 14 64 0 t64 0 V128 H0 Z;M0 86 q32 -20 64 0 t64 0 V128 H0 Z"/></path><path d="M0 94 q32 -17 64 0 t64 0 V128 H0 Z" fill="#3DFFA8" fill-opacity="0.07"><animate attributeName="d" dur="12s" repeatCount="indefinite" values="M0 94 q32 -17 64 0 t64 0 V128 H0 Z;M0 94 q32 12 64 0 t64 0 V128 H0 Z;M0 94 q32 -17 64 0 t64 0 V128 H0 Z"/></path></g>
<circle cx="64" cy="64" r="63" fill="none" stroke="#ffffff" stroke-opacity=".10" stroke-width="2"/>
</svg>
